<svg width="40" height="40" viewBox="0 0 40 40" fill="none" xmlns="http://www.w3.org/2000/svg">
<g clip-path="url(#clip0_47_2452)">
<path d="M2.51869 1.32416L5.11477 34.5363C5.15375 35.035 5.49133 35.4603 5.96822 35.6115L19.6288 39.9426C19.8704 40.0192 20.1298 40.0192 20.3714 39.9426L34.032 35.6115C34.5089 35.4603 34.8465 35.035 34.8854 34.5363L37.4815 1.32416C37.5373 0.610116 36.973 0 36.2569 0H3.74344C3.02728 0 2.46295 0.610116 2.51869 1.32416Z" fill="url(#paint0_linear_47_2452)"/>
<path d="M30.7348 11.8115H13.8157L14.3263 16.5201H30.3668L29.3175 29.9435L19.9109 32.9258L10.5043 29.9435L9.95614 22.9305H14.8934V26.3705L20.0429 27.7525L25.1615 26.3705L25.5586 20.8882H9.79647L8.75 7.5H31.0717L30.7348 11.8115Z" fill="url(#paint1_linear_47_2452)"/>
</g>
<defs>
<linearGradient id="paint0_linear_47_2452" x1="27.1735" y1="4.85076e-08" x2="3.99191" y2="32.0759" gradientUnits="userSpaceOnUse">
<stop stop-color="#131416"/>
<stop offset="1" stop-color="#1A1B1F"/>
</linearGradient>
<linearGradient id="paint1_linear_47_2452" x1="31.0717" y1="7.5" x2="5.33088" y2="19.6751" gradientUnits="userSpaceOnUse">
<stop stop-color="#B0FF4D"/>
<stop offset="1" stop-color="#FFE926"/>
</linearGradient>
<clipPath id="clip0_47_2452">
<rect width="40" height="40" fill="white"/>
</clipPath>
</defs>
</svg>
