<svg width="41" height="40" viewBox="0 0 41 40" fill="none" xmlns="http://www.w3.org/2000/svg">
<path d="M38.6667 0.333359C38.5 0.166641 38.3334 0 38.0001 0H3.00003C2.83339 0 2.50011 0.166641 2.33339 0.333359C2.16667 0.500078 2.16675 0.666719 2.16675 1L5.50011 34.3334C5.50011 34.6667 5.83347 35 6.00003 35L21 40H21.3334H21.6667L35 35C35.3334 34.8334 35.4999 34.6666 35.4999 34.3334L38.8333 1C38.8335 0.833438 38.8335 0.5 38.6667 0.333359Z" fill="url(#paint0_linear_47_1926)"/>
<path d="M20.2917 30.1667C20.2917 30.3333 20.125 30.6667 19.9584 30.8333C19.7917 31 19.6152 31.0221 19.4486 31.0221L19.2918 31L13.4584 29.3333C13.1251 29.1667 12.9585 29 12.7918 28.6667L11.9584 24.5C11.7918 24.0001 12.1251 23.6666 12.6251 23.5C13.125 23.3333 13.4584 23.6666 13.6252 24.1666L14.2918 27.8333L18.6252 29V10.1667H9.45836C8.95844 10.1667 8.625 9.83334 8.625 9.33334C8.625 8.83342 8.95836 8.49998 9.45836 8.49998H19.4584C19.9583 8.49998 20.2917 8.83334 20.2917 9.33334V30.1667ZM31.9584 9.49998L31.125 12.8333C30.9584 13.3333 30.6186 13.5801 30.125 13.5C29.6048 13.4156 29.4056 12.9972 29.4584 12.4999C29.5212 11.9066 29.9583 10.1666 29.9583 10.1666H23.4583V18.5H29.2916C29.4583 18.5 29.7916 18.6666 29.9583 18.8333C30.1249 19 30.1249 19.3333 30.1249 19.5L28.4583 28.6666C28.4583 29 28.1249 29.1665 27.9584 29.3333L22.9584 30.9999C22.7917 30.9999 22.1862 31.2304 21.7916 30.5C21.625 30.0001 21.9583 29.6666 22.2916 29.4999L26.7916 27.9999L28.1249 20.3332H22.4582C21.9583 20.3332 21.6248 19.9998 21.6248 19.4998V9.49983C21.6248 8.99991 21.9582 8.66647 22.4582 8.66647H30.7916C31.1249 8.66647 31.353 8.73772 31.5709 8.82795C32.033 9.01944 31.9584 9.33334 31.9584 9.49998Z" fill="url(#paint1_linear_47_1926)"/>
<defs>
<linearGradient id="paint0_linear_47_1926" x1="28.0214" y1="4.85075e-08" x2="5.2046" y2="33.1024" gradientUnits="userSpaceOnUse">
<stop stop-color="#131416"/>
<stop offset="1" stop-color="#1A1B1F"/>
</linearGradient>
<linearGradient id="paint1_linear_47_1926" x1="31.9628" y1="8.49998" x2="6.84829" y2="22.5131" gradientUnits="userSpaceOnUse">
<stop stop-color="#B0FF4D"/>
<stop offset="1" stop-color="#FFE926"/>
</linearGradient>
</defs>
</svg>
