<svg width="20" height="15" viewBox="0 0 20 15" fill="none" xmlns="http://www.w3.org/2000/svg">
<path d="M19.582 2.51991C19.352 1.65946 18.6744 0.981714 17.8139 0.751743C16.2541 0.333799 9.99995 0.333798 9.99995 0.333798C9.99995 0.333798 3.74583 0.333799 2.1861 0.751743C1.32565 0.981714 0.647907 1.65946 0.41794 2.51991C0 4.07964 0 7.33377 0 7.33377C0 7.33377 0 10.588 0.41794 12.1477C0.647907 13.0081 1.32565 13.6859 2.1861 13.9158C3.74583 14.3339 9.99995 14.3339 9.99995 14.3339C9.99995 14.3339 16.2541 14.3339 17.8139 13.9158C18.6744 13.6859 19.352 13.0081 19.582 12.1477C20 10.588 20 7.33377 20 7.33377C20 7.33377 20 4.07964 19.582 2.51991Z" fill="#ED1D24"/>
<path d="M7.99997 10.3337L13.196 7.33376L7.99997 4.33371V10.3337Z" fill="white"/>
</svg>
